<svg preserveAspectRatio="none" width="100%" height="100%" overflow="visible" style="display: block;" viewBox="0 0 55.8888 63.8749" fill="none" xmlns="http://www.w3.org/2000/svg">
<path id="Vector" d="M27.9444 0C21.5917 0 15.4991 2.52362 11.007 7.0157C6.51495 11.5078 3.99133 17.6003 3.99133 23.9531V38.269L1.16886 41.0915C0.610714 41.6498 0.230632 42.3611 0.0766638 43.1354C-0.0773049 43.9097 0.00175237 44.7122 0.303841 45.4416C0.605929 46.171 1.11749 46.7944 1.77384 47.2331C2.43019 47.6718 3.20188 47.906 3.99133 47.9062H51.8975C52.687 47.906 53.4586 47.6718 54.115 47.2331C54.7713 46.7944 55.2829 46.171 55.585 45.4416C55.8871 44.7122 55.9661 43.9097 55.8122 43.1354C55.6582 42.3611 55.2781 41.6498 54.72 41.0915L51.8975 38.269V23.9531C51.8975 17.6003 49.3739 11.5078 44.8818 7.0157C40.3897 2.52362 34.2972 0 27.9444 0V0ZM27.9444 63.8749C24.768 63.8749 21.7218 62.6131 19.4757 60.3671C17.2297 58.121 15.9679 55.0747 15.9679 51.8984H39.921C39.921 55.0747 38.6592 58.121 36.4131 60.3671C34.1671 62.6131 31.1208 63.8749 27.9444 63.8749Z" fill="var(--fill-0, #F1ECF3)"/>
</svg>
