<svg preserveAspectRatio="none" width="100%" height="100%" overflow="visible" style="display: block;" viewBox="0 0 63.8749 65.368" fill="none" xmlns="http://www.w3.org/2000/svg">
<path id="Vector" fill-rule="evenodd" clip-rule="evenodd" d="M0.662702 12.1961C12.2206 12.0524 23.3335 7.71872 31.9374 0C40.5408 7.72017 51.6538 12.0553 63.2122 12.2001C63.6513 14.795 63.8749 17.4698 63.8749 20.1885C63.8749 41.0476 50.541 58.7929 31.9374 65.368C13.3339 58.7889 0 41.0436 0 20.1845C0 17.4618 0.227554 14.795 0.662702 12.1961V12.1961ZM46.7365 26.9991C47.4637 26.2462 47.8661 25.2378 47.857 24.191C47.8479 23.1443 47.428 22.143 46.6878 21.4028C45.9477 20.6626 44.9464 20.2428 43.8996 20.2337C42.8529 20.2246 41.8445 20.627 41.0915 21.3542L27.9453 34.5004L22.7834 29.3385C22.0304 28.6113 21.022 28.2089 19.9753 28.218C18.9285 28.2271 17.9272 28.647 17.1871 29.3872C16.4469 30.1274 16.027 31.1286 16.0179 32.1754C16.0088 33.2221 16.4112 34.2305 17.1384 34.9835L25.1228 42.9678C25.8714 43.7163 26.8867 44.1367 27.9453 44.1367C29.0039 44.1367 30.0191 43.7163 30.7677 42.9678L46.7365 26.9991V26.9991Z" fill="var(--fill-0, #F1ECF3)"/>
</svg>
