<?xml version="1.0" standalone="no"?>
<!DOCTYPE svg PUBLIC "-//W3C//DTD SVG 20010904//EN"
 "http://www.w3.org/TR/2001/REC-SVG-20010904/DTD/svg10.dtd">
<svg version="1.0" xmlns="http://www.w3.org/2000/svg"
 width="225.000000pt" height="225.000000pt" viewBox="0 0 225.000000 225.000000"
 preserveAspectRatio="xMidYMid meet">

<g transform="translate(0.000000,225.000000) scale(0.100000,-0.100000)"
fill="#000000" stroke="none">
<path d="M23 2224 c-20 -20 -24 -31 -19 -57 3 -18 14 -38 23 -44 13 -10 249
-13 1098 -13 849 0 1085 3 1098 13 9 6 20 26 23 44 5 26 1 37 -19 57 l-26 26
-1076 0 -1076 0 -26 -26z"/>
<path d="M1672 1515 c-99 -31 -155 -107 -156 -211 0 -92 32 -147 114 -201 116
-75 145 -98 154 -124 30 -88 -59 -132 -184 -92 -59 19 -77 13 -99 -32 -31 -64
47 -117 174 -119 83 -1 134 15 181 57 54 47 78 101 78 177 0 109 -53 181 -183
250 -87 46 -113 102 -71 148 28 30 66 37 114 23 23 -7 56 -15 74 -18 30 -5 33
-2 48 33 14 34 14 42 2 64 -27 50 -155 74 -246 45z"/>
<path d="M366 1498 c-23 -32 -24 -703 -2 -734 13 -17 28 -19 178 -19 170 0
197 6 252 54 57 50 80 188 43 257 -18 35 -66 79 -97 89 -18 6 -15 10 23 38
124 94 95 270 -52 322 -31 11 -83 15 -187 15 -136 0 -144 -1 -158 -22z m273
-123 c52 -26 65 -111 23 -148 -21 -18 -86 -37 -129 -37 l-33 0 0 100 0 100 55
0 c31 0 69 -7 84 -15z m5 -299 c42 -18 66 -51 66 -93 0 -76 -47 -113 -144
-113 l-56 0 0 110 0 110 50 0 c28 0 66 -6 84 -14z"/>
<path d="M949 1499 c-20 -20 -21 -28 -17 -307 3 -279 4 -288 27 -336 56 -112
211 -156 352 -99 48 19 102 79 117 132 8 25 12 136 12 324 0 273 -1 287 -19
297 -27 14 -84 13 -103 -2 -15 -11 -17 -48 -20 -283 -3 -233 -6 -274 -21 -302
-21 -39 -45 -53 -89 -53 -38 0 -74 27 -89 67 -5 13 -9 141 -9 284 0 246 -1
260 -20 279 -28 28 -93 27 -121 -1z"/>
<path d="M27 128 c-9 -7 -20 -27 -23 -45 -5 -26 -1 -37 19 -57 l26 -26 1076 0
1076 0 26 26 c20 20 24 31 19 57 -3 18 -14 38 -23 45 -13 9 -249 12 -1098 12
-849 0 -1085 -3 -1098 -12z"/>
</g>
</svg>
