<?xml version="1.0" standalone="no"?>
<!DOCTYPE svg PUBLIC "-//W3C//DTD SVG 20010904//EN"
 "http://www.w3.org/TR/2001/REC-SVG-20010904/DTD/svg10.dtd">
<svg version="1.0" xmlns="http://www.w3.org/2000/svg"
 width="960.000000pt" height="960.000000pt" viewBox="0 0 960.000000 960.000000"
 preserveAspectRatio="xMidYMid meet">

<g transform="translate(0.000000,960.000000) scale(0.100000,-0.100000)"
fill="#000000" stroke="none">
<path d="M4555 9594 c-950 -51 -1876 -386 -2630 -952 -353 -265 -708 -620
-971 -972 -450 -601 -760 -1326 -883 -2061 -53 -311 -65 -463 -65 -809 0 -346
12 -498 65 -809 123 -738 436 -1465 887 -2066 265 -353 614 -702 968 -968 554
-416 1227 -719 1906 -857 350 -71 588 -94 973 -94 340 1 497 13 804 65 1494
250 2799 1218 3482 2581 209 418 362 885 438 1339 52 310 64 463 64 809 0 346
-12 499 -64 809 -213 1271 -954 2427 -2023 3153 -676 459 -1408 727 -2226 813
-141 15 -585 26 -725 19z m675 -640 c1772 -182 3240 -1479 3639 -3212 75 -327
104 -587 104 -942 0 -348 -27 -604 -99 -920 -320 -1419 -1369 -2580 -2748
-3041 -435 -145 -847 -212 -1321 -212 -392 0 -672 34 -1045 128 -490 124 -994
361 -1407 662 -831 606 -1410 1482 -1627 2463 -72 325 -99 573 -99 920 0 378
36 675 123 1022 295 1175 1097 2170 2189 2718 513 257 1053 396 1676 434 112
7 470 -5 615 -20z"/>
<path d="M2789 7316 c-177 -38 -295 -140 -353 -309 l-21 -62 -3 -2150 c-2
-1574 0 -2166 8 -2210 30 -155 143 -258 316 -286 177 -29 365 59 442 206 l27
50 3 1608 c2 1168 5 1608 13 1605 6 -2 209 -406 450 -898 823 -1680 786 -1606
848 -1670 31 -31 79 -67 106 -81 45 -22 63 -24 175 -24 123 0 126 0 188 34 36
20 83 57 108 85 49 56 66 89 828 1645 243 498 448 907 454 909 9 3 12 -371 12
-1595 l0 -1598 29 -60 c64 -135 207 -217 376 -218 203 0 355 114 385 291 8 49
10 637 8 2212 l-3 2145 -21 62 c-59 171 -172 270 -351 308 -141 30 -318 13
-424 -41 -73 -37 -164 -132 -223 -234 -27 -47 -342 -697 -701 -1445 -359 -748
-656 -1358 -661 -1355 -5 3 -308 621 -672 1374 -365 753 -682 1400 -705 1437
-117 196 -236 267 -457 275 -74 2 -139 -1 -181 -10z"/>
</g>
</svg>
